<svg xmlns="http://www.w3.org/2000/svg" width="120" height="40" viewBox="0 0 120 40">
  <g>
    <polygon points="117.502 17.473 119.999 15.005 119.999 7.503 112.497 0 87.502 0 80 7.503 80 2.507 77.502 0 67.502 0 65.004 2.507 65.004 7.503 60 12.507 55.005 7.503 55.005 2.507 52.497 0 42.497 0 40 2.507 37.502 0 27.502 0 25.005 2.507 25.005 12.507 12.507 0 2.507 0 0 2.507 0 37.502 2.507 40 12.507 40 15.005 37.502 15.005 27.502 27.502 40 37.502 40 40 37.502 40 17.503 52.497 30 52.497 37.502 55.005 40 65.004 40 67.502 37.502 67.502 30 80 17.503 80 32.498 87.502 40 112.497 40 119.999 32.498 119.999 25.005 117.502 22.498 105.004 22.498 105.004 25.005 95.004 25.005 95.004 15.005 105.004 15.005 105.004 17.473 117.502 17.473 117.502 17.473"/>
    <path d="M118.235,1.4148h.1694c.1893,0,.3487-.0594.3487-.2176s-.1-.2275-.3189-.2275h-.1992Zm0,.8308h-.3487V.762a3.9881,3.9881,0,0,1,.568,0,.7911.7911,0,0,1,.5181.1187.3645.3645,0,0,1,.1494.3165.377.377,0,0,1-.3387.356h0c.1495.05.2191.168.2591.366a1.9524,1.9524,0,0,0,.11.3561h-.3684a1.09,1.09,0,0,1-.12-.3561c0-.1582-.12-.2275-.3089-.2275h-.1594v.584Zm-.9266-.7715a1.161,1.161,0,0,0,1.1348,1.1866h.031a1.1416,1.1416,0,0,0,1.1364-1.1467l-.0006-.03a1.1557,1.1557,0,1,0-2.3016,0Zm2.69,0A1.5344,1.5344,0,1,1,118.4048.0015l.0106,0L118.4742,0a1.4994,1.4994,0,0,1,1.5244,1.4735Z"/>
  </g>
</svg>
