<svg xmlns="http://www.w3.org/2000/svg" width="45" height="15" viewBox="0 0 45 15">
  <g>
    <polygon points="44.063 6.552 45 5.627 45 2.813 42.186 0 32.813 0 30 2.813 30 0.94 29.063 0 25.313 0 24.377 0.94 24.377 2.813 22.5 4.69 20.627 2.813 20.627 0.94 19.687 0 15.937 0 15 0.94 14.063 0 10.313 0 9.377 0.94 9.377 4.69 4.69 0 0.94 0 0 0.94 0 14.063 0.94 15 4.69 15 5.627 14.063 5.627 10.313 10.313 15 14.063 15 15 14.063 15 6.563 19.687 11.25 19.687 14.063 20.627 15 24.377 15 25.313 14.063 25.313 11.25 30 6.563 30 12.187 32.813 15 42.186 15 45 12.187 45 9.377 44.063 8.437 39.377 8.437 39.377 9.377 35.627 9.377 35.627 5.627 39.377 5.627 39.377 6.552 44.063 6.552 44.063 6.552"/>
    <path d="M44.3382.5305h.0635c.071,0,.1308-.0222.1308-.0816s-.0374-.0853-.12-.0853h-.0747Zm0,.3116h-.1307V.2857a1.5142,1.5142,0,0,1,.213,0A.2966.2966,0,0,1,44.6147.33a.1371.1371,0,0,1,.0561.1187.1414.1414,0,0,1-.127.1335h0c.056.0186.0821.063.0971.1373a.7334.7334,0,0,0,.0411.1335h-.1382A.41.41,0,0,1,44.4988.72c0-.0593-.0448-.0853-.1158-.0853h-.06v.219ZM43.9907.5528a.4353.4353,0,0,0,.4256.4449h.0116a.4281.4281,0,0,0,.4262-.43l0-.0114a.4334.4334,0,1,0-.8631-.08.44.44,0,0,0,0,.08ZM45,.5528a.5754.5754,0,1,1-.5976-.5523l.0039,0,.0221,0A.5621.5621,0,0,1,45,.5526Z"/>
  </g>
</svg>
